<?xml version="1.0" encoding="iso-8859-1"?>
<!-- Generator: Adobe Illustrator 19.0.0, SVG Export Plug-In . SVG Version: 6.00 Build 0)  -->
<svg version="1.1" id="Layer_1" xmlns="http://www.w3.org/2000/svg" xmlns:xlink="http://www.w3.org/1999/xlink" x="0px" y="0px"
	 viewBox="0 0 300.725 300.725" style="enable-background:new 0 0 300.725 300.725;" xml:space="preserve">
<g>
	<g id="return-item-basket-retail-store_1_">
		<path style="fill:#3ADDBE;" d="M35.241,176.206h-1.602l15.619,105.437c1.02,6.86,7.015,12.034,13.946,12.034h179.599
			c6.795,0,12.626-4.849,13.862-11.526l19.618-105.945h-1.4L35.241,176.206L35.241,176.206z M98.676,256.086
			c0,7.772-6.325,14.096-14.097,14.096s-14.096-6.325-14.096-14.096v-46.988c0-7.772,6.325-14.097,14.096-14.097
			s14.097,6.325,14.097,14.097V256.086z M145.664,256.086c0,7.772-6.325,14.096-14.096,14.096s-14.097-6.325-14.097-14.096v-46.988
			c0-7.772,6.325-14.097,14.097-14.097s14.096,6.325,14.096,14.097V256.086z M192.652,256.086c0,7.772-6.325,14.096-14.097,14.096
			s-14.096-6.325-14.096-14.096v-46.988c0-7.772,6.325-14.097,14.096-14.097s14.097,6.325,14.097,14.097V256.086z M239.641,256.086
			c0,7.772-6.325,14.096-14.097,14.096s-14.096-6.325-14.096-14.096v-46.988c0-7.772,6.325-14.097,14.096-14.097
			s14.097,6.325,14.097,14.097V256.086z"/>
		<path style="fill:#FFFFFF;" d="M178.556,204.399c-2.589,0-4.699,2.105-4.699,4.699v46.988c0,2.594,2.11,4.699,4.699,4.699
			s4.699-2.105,4.699-4.699v-46.988C183.255,206.504,181.145,204.399,178.556,204.399z"/>
		<path style="fill:#FFFFFF;" d="M131.567,204.399c-2.589,0-4.699,2.105-4.699,4.699v46.988c0,2.594,2.11,4.699,4.699,4.699
			s4.699-2.105,4.699-4.699v-46.988C136.266,206.504,134.156,204.399,131.567,204.399z"/>
		<path style="fill:#F8CF26;" d="M274.882,124.519h-25.844v-1.255l-7.213,12.494c-3.477,6.019-9.811,9.393-16.31,9.393
			c-3.186,0-6.414-0.813-9.365-2.514c-4.346-2.509-7.457-6.56-8.759-11.413c-0.597-2.223-0.728-4.487-0.507-6.71H103.243
			c0.221,2.223,0.085,4.487-0.507,6.71c-1.297,4.849-4.408,8.904-8.759,11.413c-2.951,1.701-6.179,2.514-9.365,2.514
			c-6.503,0-12.833-3.374-16.31-9.393l-7.217-12.494v1.255H35.241c-11.658,0-21.145,9.487-21.145,21.145s9.487,21.145,21.145,21.145
			h239.641c11.658,0,21.145-9.487,21.145-21.145S286.54,124.519,274.882,124.519z"/>
		<path style="fill:#FFFFFF;" d="M84.579,204.399c-2.589,0-4.699,2.105-4.699,4.699v46.988c0,2.594,2.11,4.699,4.699,4.699
			s4.699-2.105,4.699-4.699v-46.988C89.278,206.504,87.168,204.399,84.579,204.399z"/>
		<path style="fill:#F78B28;" d="M140.965,44.639v42.29h28.193v-42.29c0-2.598,2.105-4.699,4.699-4.699h2.754l-21.549-21.549
			L133.513,39.94h2.754C138.86,39.94,140.965,42.04,140.965,44.639z"/>
		<path style="fill:#FFFFFF;" d="M225.544,204.399c-2.589,0-4.699,2.105-4.699,4.699v46.988c0,2.594,2.11,4.699,4.699,4.699
			s4.699-2.105,4.699-4.699v-46.988C230.243,206.504,228.133,204.399,225.544,204.399z"/>
		<path style="fill:#F8CF26;" d="M89.278,134.499c2.176-1.255,3.726-3.28,4.379-5.704c0.653-2.425,0.315-4.957-0.94-7.133
			L36.331,23.997c-1.739-3.012-4.901-4.694-8.152-4.694c-1.598,0-3.214,0.404-4.685,1.259c-2.176,1.255-3.731,3.28-4.384,5.704
			c-0.648,2.425-0.315,4.957,0.94,7.128l56.386,97.665C79.02,135.547,84.781,137.093,89.278,134.499z"/>
		<path style="fill:#F8CF26;" d="M220.845,134.499c4.487,2.598,10.248,1.053,12.837-3.435l56.386-97.665
			c1.259-2.176,1.588-4.704,0.94-7.133c-0.648-2.425-2.204-4.45-4.379-5.704c-1.475-0.855-3.092-1.259-4.685-1.259
			c-3.252,0-6.419,1.682-8.157,4.694l-56.386,97.665c-1.255,2.176-1.588,4.708-0.94,7.133S218.674,133.244,220.845,134.499z"/>
		<path d="M300.725,140.965c0-16.841-13.702-30.542-30.542-30.542h-21.14l44.47-77.028c2.514-4.346,3.181-9.412,1.88-14.261
			c-1.302-4.849-4.412-8.9-8.763-11.409c-8.975-5.173-20.492-2.091-25.674,6.879l-55.319,95.819H95.09L39.766,14.599
			c-5.178-8.965-16.69-12.053-25.67-6.874c-4.351,2.509-7.462,6.56-8.759,11.409c-1.302,4.849-0.634,9.915,1.875,14.261
			l44.474,77.028H30.542C13.702,110.422,0,124.124,0,140.965c0,12.795,7.918,23.762,19.11,28.301l16.155,109.06
			c1.692,11.428,11.686,20.05,23.24,20.05h179.599c11.324,0,21.041-8.082,23.104-19.218l20.346-109.868
			C292.775,164.769,300.725,153.788,300.725,140.965z M212.712,116.968l56.386-97.665c1.739-3.012,4.906-4.694,8.157-4.694
			c1.593,0,3.209,0.404,4.685,1.259c2.176,1.255,3.731,3.28,4.379,5.704c0.648,2.429,0.315,4.957-0.94,7.133l-56.386,97.665
			c-2.589,4.487-8.355,6.033-12.837,3.435c-2.176-1.255-3.726-3.28-4.379-5.704S211.452,119.139,212.712,116.968z M14.411,21.567
			c0.653-2.425,2.208-4.45,4.384-5.704c1.475-0.855,3.092-1.259,4.685-1.259c3.252,0,6.419,1.682,8.152,4.694l56.386,97.665
			c1.255,2.176,1.588,4.708,0.94,7.133c-0.648,2.425-2.208,4.45-4.379,5.704c-4.497,2.594-10.253,1.048-12.837-3.435L15.356,28.7
			C14.097,26.525,13.763,23.992,14.411,21.567z M271.583,171.507l-19.618,105.945c-1.24,6.677-7.067,11.526-13.862,11.526H58.505
			c-6.935,0-12.926-5.173-13.946-12.034L28.94,171.507h1.602h239.641H271.583z M270.183,162.109H30.542
			c-11.658,0-21.145-9.487-21.145-21.145s9.487-21.145,21.145-21.145h25.844v-1.255l7.217,12.499
			c3.477,6.019,9.806,9.393,16.31,9.393c3.186,0,6.414-0.813,9.365-2.514c4.346-2.509,7.457-6.56,8.759-11.413
			c0.597-2.223,0.728-4.487,0.507-6.71h103.642c-0.221,2.223-0.085,4.487,0.507,6.71c1.297,4.849,4.408,8.904,8.759,11.413
			c2.951,1.701,6.179,2.514,9.365,2.514c6.498,0,12.833-3.374,16.31-9.393l7.213-12.499v1.255h25.844
			c11.658,0,21.145,9.487,21.145,21.145S281.841,162.109,270.183,162.109z"/>
		<path d="M79.88,265.484c7.772,0,14.097-6.325,14.097-14.097v-46.988c0-7.772-6.325-14.096-14.097-14.096
			s-14.097,6.325-14.097,14.096v46.988C65.784,259.159,72.108,265.484,79.88,265.484z M75.181,204.399
			c0-2.594,2.11-4.699,4.699-4.699s4.699,2.105,4.699,4.699v46.988c0,2.594-2.11,4.699-4.699,4.699s-4.699-2.105-4.699-4.699
			V204.399z"/>
		<path d="M126.869,265.484c7.772,0,14.097-6.325,14.097-14.097v-46.988c0-7.772-6.325-14.096-14.097-14.096
			s-14.097,6.325-14.097,14.096v46.988C112.772,259.159,119.097,265.484,126.869,265.484z M122.17,204.399
			c0-2.594,2.11-4.699,4.699-4.699s4.699,2.105,4.699,4.699v46.988c0,2.594-2.11,4.699-4.699,4.699s-4.699-2.105-4.699-4.699
			V204.399z"/>
		<path d="M173.857,265.484c7.772,0,14.097-6.325,14.097-14.097v-46.988c0-7.772-6.325-14.096-14.097-14.096
			s-14.096,6.325-14.096,14.096v46.988C159.76,259.159,166.085,265.484,173.857,265.484z M169.158,204.399
			c0-2.594,2.11-4.699,4.699-4.699s4.699,2.105,4.699,4.699v46.988c0,2.594-2.11,4.699-4.699,4.699s-4.699-2.105-4.699-4.699
			V204.399z"/>
		<path d="M220.845,265.484c7.772,0,14.097-6.325,14.097-14.097v-46.988c0-7.772-6.325-14.096-14.097-14.096
			s-14.096,6.325-14.096,14.096v46.988C206.749,259.159,213.073,265.484,220.845,265.484z M216.146,204.399
			c0-2.594,2.11-4.699,4.699-4.699s4.699,2.105,4.699,4.699v46.988c0,2.594-2.11,4.699-4.699,4.699s-4.699-2.105-4.699-4.699
			V204.399z"/>
		<path d="M117.471,44.639h9.398v42.29c0,2.598,2.105,4.699,4.699,4.699h37.591c2.594,0,4.699-2.1,4.699-4.699v-42.29h9.398
			c1.898,0,3.613-1.142,4.342-2.899c0.728-1.757,0.324-3.778-1.02-5.122L153.685,3.726c-1.837-1.837-4.807-1.837-6.644,0
			l-32.892,32.892c-1.344,1.344-1.748,3.364-1.02,5.122C113.857,43.497,115.573,44.639,117.471,44.639z M150.363,13.692
			l21.549,21.549h-2.754c-2.594,0-4.699,2.1-4.699,4.699v42.29h-28.193V39.94c0-2.598-2.105-4.699-4.699-4.699h-2.754
			L150.363,13.692z"/>
	</g>
	<g id="Layer_1_21_">
	</g>
</g>
<g>
</g>
<g>
</g>
<g>
</g>
<g>
</g>
<g>
</g>
<g>
</g>
<g>
</g>
<g>
</g>
<g>
</g>
<g>
</g>
<g>
</g>
<g>
</g>
<g>
</g>
<g>
</g>
<g>
</g>
</svg>
